<svg xmlns="http://www.w3.org/2000/svg" width="40" height="40" fill="currentColor"><path d="M27.562 7.625a.687.687 0 0 1 .688-.688h3.437V3.5a.687.687 0 1 1 1.375 0v3.438H36.5a.687.687 0 1 1 0 1.375h-3.438v3.437a.687.687 0 1 1-1.375 0V8.312H28.25a.687.687 0 0 1-.688-.687Zm9.419 9.66c.137.898.206 1.806.206 2.715a17.118 17.118 0 0 1-5.62 12.702l-.138.137a17.17 17.17 0 0 1-22.842 0 .62.62 0 0 1-.155-.137A17.188 17.188 0 0 1 20 2.812c.909 0 1.817.07 2.715.207a.688.688 0 1 1-.223 1.358A17.19 17.19 0 0 0 20 4.187 15.812 15.812 0 0 0 8.793 31.155a13.028 13.028 0 0 1 7.649-5.861 7.563 7.563 0 1 1 7.115 0 13.028 13.028 0 0 1 7.649 5.86A15.83 15.83 0 0 0 35.812 20a17.001 17.001 0 0 0-.189-2.492.69.69 0 1 1 1.358-.224ZM20 24.811a6.187 6.187 0 1 0 0-12.374 6.187 6.187 0 0 0 0 12.374Zm0 11A15.692 15.692 0 0 0 30.157 32.1a11.688 11.688 0 0 0-20.315 0A15.692 15.692 0 0 0 20 35.812Z"/></svg>