<svg xmlns="http://www.w3.org/2000/svg" width="40" height="40" fill="currentColor"><path d="M28.125 14.547v-1.422c0-3.5-5.766-6.25-13.125-6.25-7.36 0-13.125 2.75-13.125 6.25v6.25c0 2.984 4.203 5.422 10 6.078v1.422c0 3.5 5.766 6.25 13.125 6.25 7.36 0 13.125-2.75 13.125-6.25v-6.25c0-2.953-4.078-5.406-10-6.078Zm8.75 6.078c0 2.422-4.766 5-11.875 5a26.368 26.368 0 0 1-4.375-.36v-.218c4.469-.985 7.5-3.125 7.5-5.672v-3.563c5.031.594 8.75 2.61 8.75 4.813Zm-24.328 3.64H12.5a21.79 21.79 0 0 1-1.875-.25v-4.984c1.447.23 2.91.346 4.375.344a27.594 27.594 0 0 0 4.375-.344v4.985a25.291 25.291 0 0 1-4.375.359c-.86 0-1.672-.031-2.453-.11Zm14.328-8.437v3.547c0 1.703-2.375 3.484-6.25 4.39v-4.968c2.75-.61 4.969-1.656 6.25-2.969ZM15 8.125c7.11 0 11.875 2.578 11.875 5s-4.766 5-11.875 5c-7.11 0-11.875-2.578-11.875-5s4.766-5 11.875-5ZM3.125 19.375v-3.547c1.281 1.313 3.5 2.36 6.25 2.969v4.969c-3.875-.907-6.25-2.688-6.25-4.391Zm10 7.5v-1.313c.61.047 1.234.063 1.875.063.64 0 1.266-.016 1.875-.063.815.3 1.65.54 2.5.72v4.984c-3.875-.907-6.25-2.688-6.25-4.391Zm7.5 4.64v-4.984c1.447.228 2.91.343 4.375.344a27.594 27.594 0 0 0 4.375-.344v4.985c-2.897.479-5.853.479-8.75 0Zm16.25-4.64c0 1.703-2.375 3.484-6.25 4.39v-4.968c2.75-.61 4.969-1.656 6.25-2.969v3.547Z"/></svg>