<svg xmlns="http://www.w3.org/2000/svg" width="40" height="40" fill="currentColor"><path d="M36.907 11.967a1.874 1.874 0 0 0-1.969-.266l-7.89 3.516a.657.657 0 0 1-.813-.266l-4.594-8.297a1.89 1.89 0 0 0-3.281 0l-4.594 8.297a.656.656 0 0 1-.812.266L5.047 11.7a1.86 1.86 0 0 0-2.578 2.14l3.97 16.922c.123.496.437.923.874 1.188.289.17.618.263.953.266a1.97 1.97 0 0 0 .516-.078 42.281 42.281 0 0 1 22.437 0 1.86 1.86 0 0 0 2.328-1.376l3.985-16.921a1.859 1.859 0 0 0-.625-1.875Zm-.594 1.593L32.33 30.482a.595.595 0 0 1-.282.39.625.625 0 0 1-.5.063 43.501 43.501 0 0 0-23.109 0 .64.64 0 0 1-.781-.453L3.688 13.56a.594.594 0 0 1 .203-.625.656.656 0 0 1 .406-.156.734.734 0 0 1 .25.063l7.907 3.515a1.875 1.875 0 0 0 2.406-.812l4.594-8.281a.641.641 0 0 1 1.093 0l4.594 8.28a1.875 1.875 0 0 0 2.407.813l7.906-3.515a.625.625 0 0 1 .656.093.594.594 0 0 1 .203.625ZM25.626 25.326a.625.625 0 0 1-.625.563h-.063a47.416 47.416 0 0 0-9.875 0 .64.64 0 0 1-.687-.563.625.625 0 0 1 .562-.688c3.365-.359 6.76-.359 10.125 0a.628.628 0 0 1 .54.444c.023.079.031.162.023.244Z"/></svg>