<svg xmlns="http://www.w3.org/2000/svg" width="40" height="40" fill="currentColor"><path fill-rule="evenodd" d="M35.899 14.857 31.915 31.78a.596.596 0 0 1-.282.39.626.626 0 0 1-.5.063 43.5 43.5 0 0 0-23.109 0 .64.64 0 0 1-.781-.453L3.274 14.857a.594.594 0 0 1 .203-.625.657.657 0 0 1 .406-.156.736.736 0 0 1 .25.063l7.907 3.515a1.875 1.875 0 0 0 2.406-.812L19.04 8.56a.64.64 0 0 1 1.093 0l4.594 8.282a1.875 1.875 0 0 0 2.406.812l7.907-3.515a.626.626 0 0 1 .656.093.593.593 0 0 1 .203.625ZM25.008 27.025a.625.625 0 0 0 .066-.863.626.626 0 0 0-.425-.227c-3.365-.359-6.76-.359-10.125 0a.626.626 0 0 0-.563.688.64.64 0 0 0 .688.562 47.402 47.402 0 0 1 9.875 0h.063a.625.625 0 0 0 .42-.16Z" clip-rule="evenodd"/></svg>