<svg xmlns="http://www.w3.org/2000/svg" width="40" height="40" fill="currentColor"><path d="M35.958 20.262c-.055-.11-1.186-2.607-3.71-5.131S25.889 10 20 10c-5.89 0-9.917 2.786-12.248 5.131-2.331 2.345-3.655 5.02-3.71 5.131a.607.607 0 0 0 0 .441c.055.11 1.186 2.607 3.71 5.131S14.11 30.965 20 30.965s9.917-2.786 12.248-5.13c2.331-2.346 3.655-5.021 3.71-5.132a.607.607 0 0 0 0-.441Zm-4.51 4.828c-3.186 3.158-7.034 4.772-11.448 4.772-4.414 0-8.262-1.614-11.448-4.772a19.13 19.13 0 0 1-3.393-4.607 18.87 18.87 0 0 1 3.393-4.607c3.186-3.173 7.034-4.773 11.448-4.773 4.414 0 8.262 1.6 11.448 4.773a18.868 18.868 0 0 1 3.393 4.607 18.867 18.867 0 0 1-3.393 4.607ZM20 14.414a6.07 6.07 0 1 0 0 12.138 6.07 6.07 0 0 0 0-12.138Zm0 11.034a4.965 4.965 0 1 1 0-9.93 4.965 4.965 0 0 1 0 9.93Z"/></svg>