<svg xmlns="http://www.w3.org/2000/svg" width="40" height="40" fill="currentColor"><path d="M20 32.686a1.631 1.631 0 0 1-1.195-.492L7.119 20.508a7.875 7.875 0 0 1 .309-11.433 7.594 7.594 0 0 1 5.639-1.898 8.48 8.48 0 0 1 5.484 2.489L20 11.114l1.744-1.743a7.874 7.874 0 0 1 11.432.309 7.595 7.595 0 0 1 1.899 5.639 8.48 8.48 0 0 1-2.49 5.484l-11.39 11.391c-.319.314-.748.49-1.195.492ZM12.547 8.288a6.455 6.455 0 0 0-4.374 1.631 6.736 6.736 0 0 0-.253 9.787l11.686 11.7a.563.563 0 0 0 .788 0l11.404-11.404c2.658-2.658 2.897-6.947.535-9.577a6.735 6.735 0 0 0-9.788-.253l-2.151 2.138a.551.551 0 0 1-.788 0l-1.856-1.857a7.397 7.397 0 0 0-5.203-2.165Z"/></svg>