<svg xmlns="http://www.w3.org/2000/svg" width="40" height="40" fill="currentColor"><path d="M21.034 11.68V8.52a.52.52 0 1 0-1.04 0v3.16a3.122 3.122 0 0 0 0 6.166V31.41a.52.52 0 1 0 1.04 0V17.846a3.121 3.121 0 0 0 0-6.165Zm-.52 5.164a2.081 2.081 0 1 1 0-4.162 2.081 2.081 0 0 1 0 4.162ZM33 25.168a3.147 3.147 0 0 0-2.601-3.082V8.52a.52.52 0 1 0-1.04 0v13.566a3.122 3.122 0 0 0 0 6.165v3.16a.52.52 0 1 0 1.04 0v-3.16A3.134 3.134 0 0 0 33 25.167Zm-3.122 2.081a2.082 2.082 0 1 1 0-4.163 2.082 2.082 0 0 1 0 4.163ZM11.67 17.924V8.52a.52.52 0 0 0-1.04 0v9.404a3.121 3.121 0 0 0 0 6.165v7.322a.52.52 0 0 0 1.04 0v-7.322a3.122 3.122 0 0 0 0-6.165Zm-.52 5.163a2.08 2.08 0 1 1 0-4.161 2.08 2.08 0 0 1 0 4.161Z"/></svg>