<svg xmlns="http://www.w3.org/2000/svg" width="40" height="40" fill="currentColor"><path d="M37.282 17.656a1.811 1.811 0 0 0-1.516-.781h-2.64V13.75a1.875 1.875 0 0 0-1.876-1.875H20.422a.64.64 0 0 1-.375-.125L15.703 8.5a1.906 1.906 0 0 0-1.124-.375H6.25A1.875 1.875 0 0 0 4.375 10v22.5a.532.532 0 0 0 .11.344.625.625 0 0 0 .515.281h27.5a.641.641 0 0 0 .594-.422l4.453-13.36a1.86 1.86 0 0 0-.265-1.687ZM6.25 9.375h8.329a.64.64 0 0 1 .374.125l4.344 3.25c.326.241.72.373 1.125.375H31.25a.624.624 0 0 1 .625.625v3.125h-9a1.829 1.829 0 0 0-1.03.313l-3.126 2.078a.562.562 0 0 1-.344.109h-7.53a1.876 1.876 0 0 0-1.735 1.172L5.625 29.25V10a.625.625 0 0 1 .625-.625Zm30.11 9.578-4.313 12.922H5.922l4.344-10.86a.625.625 0 0 1 .578-.39h7.531c.368.002.727-.107 1.032-.313l3.125-2.078c.1-.073.22-.111.343-.109h12.891a.579.579 0 0 1 .5.266.593.593 0 0 1 .094.562Z"/></svg>