<svg xmlns="http://www.w3.org/2000/svg" width="48" height="48" fill="currentColor"><path d="M24 14.248a9.75 9.75 0 1 0 0 19.5 9.75 9.75 0 0 0 0-19.5Zm0 18a8.25 8.25 0 1 1 0-16.5 8.25 8.25 0 0 1 0 16.5Zm19.781-12.544a.676.676 0 0 0-.356-.488l-4.669-2.587a12.121 12.121 0 0 0-.993-1.725l.093-5.344a.806.806 0 0 0-.243-.562 20.344 20.344 0 0 0-7.425-4.294.787.787 0 0 0-.62.075l-4.574 2.756a14.062 14.062 0 0 0-1.988-.019L18.431 4.78a.788.788 0 0 0-.618-.075 20.513 20.513 0 0 0-7.425 4.294.825.825 0 0 0-.244.58l.094 5.326c-.378.547-.71 1.124-.994 1.725l-4.669 2.587a.769.769 0 0 0-.375.488 19.8 19.8 0 0 0 .019 8.587.675.675 0 0 0 .356.488l4.669 2.587c.283.602.616 1.179.994 1.725l-.094 5.344a.806.806 0 0 0 .244.563 20.345 20.345 0 0 0 7.425 4.293.787.787 0 0 0 .618-.075l4.575-2.756c.662.053 1.326.06 1.988.019l4.575 2.737a.693.693 0 0 0 .394.113l.225-.038a20.511 20.511 0 0 0 7.425-4.293.825.825 0 0 0 .243-.582l-.093-5.325c.378-.546.71-1.123.993-1.725l4.67-2.587a.769.769 0 0 0 .374-.488 19.8 19.8 0 0 0-.019-8.587Zm-1.387 7.931-4.556 2.531a.694.694 0 0 0-.32.338c-.32.68-.695 1.332-1.124 1.95a.732.732 0 0 0-.131.431l.093 5.213a18.507 18.507 0 0 1-6.3 3.656l-4.48-2.681a.787.787 0 0 0-.395-.113h-.056c-.749.056-1.5.056-2.25 0a.693.693 0 0 0-.431.094l-4.481 2.7a18.993 18.993 0 0 1-6.32-3.638l.095-5.23a.732.732 0 0 0-.132-.432 15.456 15.456 0 0 1-1.125-1.95.694.694 0 0 0-.318-.338l-4.557-2.53a18.281 18.281 0 0 1 0-7.276l4.557-2.531a.694.694 0 0 0 .318-.338c.32-.68.697-1.332 1.125-1.95a.731.731 0 0 0 .132-.43l-.094-5.213a18.506 18.506 0 0 1 6.3-3.657l4.481 2.682a.656.656 0 0 0 .45.112 15.018 15.018 0 0 1 2.25 0 .694.694 0 0 0 .431-.094l4.482-2.7a18.994 18.994 0 0 1 6.318 3.638l-.093 5.231a.731.731 0 0 0 .13.431c.423.622.799 1.274 1.126 1.95a.693.693 0 0 0 .319.338l4.556 2.531a18.28 18.28 0 0 1 0 7.275Z"/></svg>