<svg xmlns="http://www.w3.org/2000/svg" width="40" height="40" fill="currentColor"><path d="M28.924 15.74a3.089 3.089 0 0 0-2.127.859 3.077 3.077 0 0 0-5.05-1.615V9.076a3.076 3.076 0 1 0-6.151 0v13.623l-1.858-3.204a3.063 3.063 0 0 0-4.191-1.128 3.012 3.012 0 0 0-1.436 1.871 2.973 2.973 0 0 0 .295 2.307c4.063 8.574 6.741 12.162 12.829 12.162A10.778 10.778 0 0 0 32 23.942v-5.126a3.089 3.089 0 0 0-3.076-3.076Zm2.05 8.202a9.752 9.752 0 0 1-9.74 9.74c-4.741 0-7.253-1.756-11.918-11.586v-.038a2.05 2.05 0 0 1 .756-2.806 2.037 2.037 0 0 1 2.794.756l2.807 4.87a.513.513 0 0 0 .577.23.5.5 0 0 0 .384-.487V9.076a2.05 2.05 0 1 1 4.101 0v8.715a.513.513 0 0 0 1.025 0v-.513a2.05 2.05 0 0 1 4.101 0v1.538a.513.513 0 1 0 1.026 0 2.05 2.05 0 0 1 4.1 0l-.012 5.126Z"/></svg>