<svg xmlns="http://www.w3.org/2000/svg" width="44" height="44" fill="currentColor"><path d="M35.75 6.188H8.25A2.063 2.063 0 0 0 6.187 8.25v27.5a2.063 2.063 0 0 0 2.063 2.063h27.5a2.062 2.062 0 0 0 2.063-2.063V8.25a2.062 2.062 0 0 0-2.063-2.063Zm.688 29.562a.687.687 0 0 1-.688.688H8.25a.687.687 0 0 1-.688-.688v-5.208l5.707-5.706a.67.67 0 0 1 .962 0l3.558 3.558a2.097 2.097 0 0 0 2.922 0l7.683-7.683a.67.67 0 0 1 .962 0l7.081 7.081v7.958Zm0-9.917-6.102-6.102a2.08 2.08 0 0 0-2.922 0l-7.683 7.683a.67.67 0 0 1-.962 0l-3.558-3.558a2.062 2.062 0 0 0-2.922 0l-4.726 4.727V8.25a.688.688 0 0 1 .687-.688h27.5a.687.687 0 0 1 .688.688v17.583Zm-17.876-10.02a1.375 1.375 0 0 1-1.375 1.374 1.358 1.358 0 0 1-1.375-1.375 1.375 1.375 0 0 1 2.75 0Z"/></svg>