<svg xmlns="http://www.w3.org/2000/svg" width="40" height="40" fill="currentColor"><path d="M20 12.438a7.562 7.562 0 1 0 0 15.124 7.562 7.562 0 0 0 0-15.125Zm0 13.75a6.187 6.187 0 1 1 0-12.375 6.187 6.187 0 0 1 0 12.374ZM27.563 3.5H12.438A8.937 8.937 0 0 0 3.5 12.438v15.124a8.937 8.937 0 0 0 8.938 8.938h15.124a8.938 8.938 0 0 0 8.938-8.938V12.438A8.938 8.938 0 0 0 27.562 3.5Zm7.562 24.063a7.563 7.563 0 0 1-7.563 7.562H12.438a7.563 7.563 0 0 1-7.562-7.563V12.438a7.562 7.562 0 0 1 7.563-7.562h15.124a7.562 7.562 0 0 1 7.563 7.563v15.124Zm-4.813-16.5a1.375 1.375 0 1 1-2.75 0 1.375 1.375 0 0 1 2.75 0Z"/></svg>