<svg xmlns="http://www.w3.org/2000/svg" width="40" height="40" fill="currentColor"><path d="M15.81 35.388a.537.537 0 0 1-.237-.066.511.511 0 0 1-.275-.563l2.004-10.045-7.963-2.986a.485.485 0 0 1-.327-.366.55.55 0 0 1 .131-.485L23.811 5.161a.524.524 0 0 1 .89.472l-2.003 10.032 7.962 2.986a.537.537 0 0 1 .328.38.524.524 0 0 1-.131.471L16.189 35.218a.535.535 0 0 1-.38.17Zm-5.37-14.367 7.648 2.868a.537.537 0 0 1 .327.603l-1.728 8.67L29.56 19.358l-7.648-2.868a.524.524 0 0 1-.327-.59l1.728-8.67L10.44 21.022Z"/></svg>