<svg xmlns="http://www.w3.org/2000/svg" width="48" height="48" fill="currentColor"><path d="M42.919 15.525a3.769 3.769 0 0 0-2.813-1.275H29.25V10.5a6.75 6.75 0 0 0-6.75-6.75.788.788 0 0 0-.675.412L14.531 18.75H6A2.25 2.25 0 0 0 3.75 21v16.5A2.25 2.25 0 0 0 6 39.75h31.856a3.75 3.75 0 0 0 3.713-3.281l2.25-18a3.73 3.73 0 0 0-.9-2.944ZM5.25 37.5V21a.75.75 0 0 1 .75-.75h8.25v18H6a.75.75 0 0 1-.75-.75Zm37.087-19.219-2.25 18a2.269 2.269 0 0 1-2.23 1.969H15.75V19.669l7.2-14.4a5.269 5.269 0 0 1 4.8 5.231V15a.75.75 0 0 0 .75.75h11.606a2.269 2.269 0 0 1 1.688.769 2.286 2.286 0 0 1 .544 1.762Z"/></svg>