<svg xmlns="http://www.w3.org/2000/svg" width="40" height="40" fill="none"><path fill="#fff" d="M0 0h40v40H0z"/><path fill="#375F47" d="M20.016 10.625a5.625 5.625 0 1 0 0 11.25 5.625 5.625 0 0 0 0-11.25Zm0 10a4.375 4.375 0 1 1 4.375-4.375 4.39 4.39 0 0 1-4.375 4.375Zm0-17.5A13.14 13.14 0 0 0 6.89 16.25c0 4.75 2.218 9.813 6.406 14.625a39.907 39.907 0 0 0 6.36 5.89.64.64 0 0 0 .718 0 39.907 39.907 0 0 0 6.36-5.89C30.921 26.062 33.14 21 33.14 16.25A13.14 13.14 0 0 0 20.016 3.125Zm5.797 26.906a37.905 37.905 0 0 1-5.797 5.438 38.671 38.671 0 0 1-5.797-5.438C11.453 26.844 8.14 21.86 8.14 16.25a11.875 11.875 0 0 1 23.75 0c0 5.61-3.297 10.594-6.078 13.781Z"/></svg>