<svg xmlns="http://www.w3.org/2000/svg" width="99" height="60" fill="none">
    <path fill="#010101" d="M54.238 8.158H43.94c-2.646 0-2.743-2.444-2.746-2.72v-1.36C41.194 2.369 39.285 0 35.7 0H22.013c-4.03 0-5.493 2.44-5.493 4.079V5.43c-.001.112-.066 2.728-2.789 2.728H3.433c-.91 0-1.783.36-2.426.996A3.386 3.386 0 0 0 0 11.556V36.03c0 1.874 1.54 3.4 3.433 3.4h8.239a.69.69 0 0 0 .485-.2.676.676 0 0 0 0-.961.69.69 0 0 0-.485-.2h-8.24a2.052 2.052 0 0 1-2.059-2.039V19.034h10.985a17.429 17.429 0 0 0-1.373 6.798c0 9.746 8.008 17.675 17.85 17.675 9.843 0 17.851-7.93 17.851-17.675 0-2.408-.493-4.704-1.377-6.798h10.99V36.03c0 1.125-.925 2.04-2.06 2.04h-9.612a.69.69 0 0 0-.486.199.676.676 0 0 0 0 .961.69.69 0 0 0 .486.2h9.611c1.894 0 3.433-1.526 3.433-3.4V11.556c0-1.873-1.539-3.398-3.433-3.398Zm-25.402 33.99c-9.086 0-16.478-7.32-16.478-16.316 0-8.996 7.392-16.315 16.478-16.315 9.086 0 16.477 7.319 16.477 16.315 0 8.997-7.391 16.315-16.477 16.315ZM44.97 17.674a.679.679 0 0 0-.283.064 17.88 17.88 0 0 0-15.851-9.581 17.88 17.88 0 0 0-15.852 9.58.68.68 0 0 0-.283-.063H1.373v-6.119c0-1.124.924-2.039 2.06-2.039H13.73c3.252 0 4.146-2.662 4.162-4.079v-1.36c0-1.092 1.097-2.718 4.12-2.718H35.7c2.876 0 4.12 1.8 4.12 2.719v1.36c0 1.41.86 4.078 4.119 4.078h10.298c1.136 0 2.06.915 2.06 2.04v6.118H44.97Z"/>
    <path fill="#010101" d="M13.044 6.798a.69.69 0 0 0 .486-.2.677.677 0 0 0 .2-.48v-1.36c0-1.124-.923-2.039-2.059-2.039H6.18c-1.136 0-2.06.915-2.06 2.04v1.36c0 .18.072.352.201.48a.69.69 0 0 0 .971 0 .676.676 0 0 0 .201-.48v-1.36c0-.18.072-.354.201-.481a.69.69 0 0 1 .486-.2h5.492a.69.69 0 0 1 .486.2c.128.127.2.3.2.48v1.36c0 .18.073.353.202.48a.69.69 0 0 0 .485.2Zm15.791 6.798c-6.815 0-12.358 5.49-12.358 12.236S22.02 38.07 28.835 38.07s12.358-5.49 12.358-12.237c0-6.746-5.543-12.236-12.358-12.236Zm0 23.113c-6.057 0-10.985-4.88-10.985-10.877 0-5.997 4.928-10.877 10.985-10.877 6.057 0 10.985 4.88 10.985 10.877 0 5.997-4.928 10.877-10.985 10.877Z"/>
    <path fill="#E0F3E6" d="M39.773 25.709c0 6.007-4.897 10.876-10.937 10.876-6.041 0-10.938-4.87-10.938-10.876 0-6.007 4.897-10.877 10.938-10.877 6.04 0 10.937 4.87 10.937 10.877Z"/>
    <path fill="#010101" d="M63.08 38.682c0 2.24-.464 4.298-1.392 6.17-.928 1.845-2.254 3.309-3.977 4.39-1.724 1.081-3.739 1.622-6.045 1.622-.637 0-1.326-.053-2.069-.159-.742-.105-1.339-.237-1.79-.395l.12 3.322v3.995l4.136.435V60H40.967v-1.938l2.863-.435V31.523l-2.903-.712v-2.136l5.648-.712h.079l.835.712v2.334c.796-.87 1.777-1.609 2.944-2.215 1.193-.607 2.519-.91 3.977-.91 1.564 0 2.996.382 4.295 1.147 1.326.765 2.387 1.951 3.182 3.56.796 1.608 1.193 3.638 1.193 6.09Zm-10.3-8.03c-1.008 0-1.95.211-2.825.633-.875.422-1.55.884-2.028 1.385v14.91c.185.317.65.607 1.392.87a8.46 8.46 0 0 0 2.506.357c2.041 0 3.685-.804 4.931-2.413 1.273-1.608 1.91-4.034 1.91-7.277 0-2.848-.557-4.97-1.67-6.368-1.088-1.398-2.493-2.096-4.217-2.096ZM68.686 20.923l-3.341-.435v-1.7l6.483-.752h.08l.874.593v9.176l-.159 3.362c.849-.765 2.015-1.49 3.5-2.176 1.485-.685 2.983-1.028 4.495-1.028 1.67 0 2.97.316 3.897.95.928.632 1.578 1.608 1.95 2.926.37 1.292.556 3.046.556 5.26v11.036l2.784.355v1.938H80.3V48.49l2.586-.355V37.06c0-1.556-.106-2.769-.319-3.639-.212-.896-.61-1.555-1.193-1.977-.583-.449-1.458-.673-2.625-.673-.954 0-1.975.238-3.062.712-1.087.475-2.042 1.028-2.864 1.661v14.99l2.744.356v1.938H66.3V48.49l2.387-.316V20.923ZM96.017 50.824c-.69 0-1.286-.237-1.79-.712s-.755-1.081-.755-1.82c0-.817.291-1.502.875-2.056.61-.554 1.312-.83 2.108-.83.822 0 1.445.25 1.869.75.45.476.676 1.069.676 1.78 0 .87-.292 1.57-.875 2.097-.583.527-1.286.791-2.108.791Z"/>
</svg>


