<svg xmlns="http://www.w3.org/2000/svg" width="40" height="40" fill="currentColor"><path d="M25.625 20a.624.624 0 0 1-.625.625H15a.624.624 0 1 1 0-1.25h10a.624.624 0 0 1 .625.625ZM25 24.375H15a.624.624 0 1 0 0 1.25h10a.624.624 0 1 0 0-1.25ZM33.125 7.5v23.75a4.39 4.39 0 0 1-4.375 4.375h-17.5a4.39 4.39 0 0 1-4.375-4.375V7.5A1.875 1.875 0 0 1 8.75 5.625h3.125V3.75a.625.625 0 1 1 1.25 0v1.875h6.25V3.75a.625.625 0 1 1 1.25 0v1.875h6.25V3.75a.625.625 0 1 1 1.25 0v1.875h3.125A1.875 1.875 0 0 1 33.125 7.5Zm-1.25 0a.625.625 0 0 0-.625-.625h-3.125V8.75a.625.625 0 1 1-1.25 0V6.875h-6.25V8.75a.625.625 0 1 1-1.25 0V6.875h-6.25V8.75a.625.625 0 1 1-1.25 0V6.875H8.75a.625.625 0 0 0-.625.625v23.75a3.14 3.14 0 0 0 3.125 3.125h17.5a3.141 3.141 0 0 0 3.125-3.125V7.5Z"/></svg>