<svg xmlns="http://www.w3.org/2000/svg" width="24" height="24" fill="currentColor"><path d="m21.046 7.144-4.19-4.19a1.127 1.127 0 0 0-1.594 0L3.704 14.515c-.21.211-.329.497-.329.795v4.19A1.125 1.125 0 0 0 4.5 20.625h15.75a.375.375 0 1 0 0-.75H9.906l11.14-11.14a1.125 1.125 0 0 0 0-1.591Zm-14.14 10.48 8.469-8.468 2.095 2.094L9 19.72l-2.094-2.095Zm-.531-.53L4.281 15l8.469-8.47 2.095 2.095-8.47 8.47ZM4.125 19.5v-3.595L6.11 17.89l1.984 1.985H4.5a.375.375 0 0 1-.375-.375Zm16.39-11.296L18 10.719 13.28 6l2.516-2.514a.376.376 0 0 1 .53 0l4.19 4.19a.375.375 0 0 1 0 .529Z"/></svg>