<svg xmlns="http://www.w3.org/2000/svg" width="40" height="40" fill="currentColor"><path d="M27.5 34.372c-12.063 0-21.875-9.812-21.875-21.875a8.14 8.14 0 0 1 7.094-8.062 1.89 1.89 0 0 1 1.953 1.125l3.14 7.328a1.876 1.876 0 0 1-.156 1.765l-2.593 3.97a.61.61 0 0 0-.047.608 12.484 12.484 0 0 0 5.812 5.782.578.578 0 0 0 .594-.047l3.922-2.61a1.86 1.86 0 0 1 1.781-.171l7.313 3.14a1.891 1.891 0 0 1 1.124 1.953 8.14 8.14 0 0 1-8.062 7.094ZM12.953 5.67h-.078a6.89 6.89 0 0 0-6 6.828A20.64 20.64 0 0 0 27.5 33.122a6.89 6.89 0 0 0 6.828-6 .625.625 0 0 0-.39-.64l-7.313-3.141a.625.625 0 0 0-.594.047l-3.906 2.61a1.859 1.859 0 0 1-1.844.14 13.844 13.844 0 0 1-6.39-6.36 1.89 1.89 0 0 1 .125-1.843l2.593-3.97a.61.61 0 0 0 .047-.593l-3.14-7.312a.61.61 0 0 0-.563-.391Z"/></svg>