<svg xmlns="http://www.w3.org/2000/svg" width="40" height="40" fill="currentColor"><path d="M19.998 11.87a8.125 8.125 0 1 0 0 16.251 8.125 8.125 0 0 0 0-16.25Zm0 15a6.875 6.875 0 1 1 0-13.75 6.875 6.875 0 0 1 0 13.75Zm16.485-10.453a.56.56 0 0 0-.297-.406l-3.891-2.156a10.095 10.095 0 0 0-.828-1.438l.078-4.453a.672.672 0 0 0-.203-.469 16.953 16.953 0 0 0-6.188-3.578.656.656 0 0 0-.515.063l-3.813 2.297a11.72 11.72 0 0 0-1.656-.016L15.357 3.98a.656.656 0 0 0-.515-.063 17.094 17.094 0 0 0-6.188 3.578.687.687 0 0 0-.203.485l.078 4.437c-.315.456-.592.937-.828 1.438l-3.89 2.156a.64.64 0 0 0-.313.406 16.5 16.5 0 0 0 .016 7.157.562.562 0 0 0 .297.406l3.89 2.156c.236.501.513.982.828 1.438l-.078 4.453a.672.672 0 0 0 .203.468 16.956 16.956 0 0 0 6.188 3.579.656.656 0 0 0 .515-.063l3.813-2.297c.551.044 1.104.05 1.656.016l3.813 2.281a.578.578 0 0 0 .328.094l.187-.031a17.094 17.094 0 0 0 6.188-3.578.688.688 0 0 0 .203-.485l-.078-4.437c.315-.456.592-.937.828-1.438l3.89-2.156a.64.64 0 0 0 .313-.406 16.5 16.5 0 0 0-.015-7.157Zm-1.157 6.61-3.797 2.11a.578.578 0 0 0-.265.28c-.267.567-.58 1.11-.938 1.625a.61.61 0 0 0-.11.36l.079 4.343a15.42 15.42 0 0 1-5.25 3.047l-3.734-2.234a.656.656 0 0 0-.328-.094h-.047a12.51 12.51 0 0 1-1.875 0 .578.578 0 0 0-.36.078l-3.734 2.25a15.828 15.828 0 0 1-5.266-3.03l.078-4.36a.61.61 0 0 0-.109-.36 12.885 12.885 0 0 1-.937-1.625.578.578 0 0 0-.266-.28l-3.797-2.11c-.406-2-.406-4.062 0-6.063l3.797-2.11a.578.578 0 0 0 .266-.28c.266-.567.58-1.11.937-1.625a.61.61 0 0 0 .11-.36L9.7 8.245a15.421 15.421 0 0 1 5.25-3.046l3.735 2.234c.11.076.242.11.375.094.624-.047 1.25-.047 1.875 0a.578.578 0 0 0 .359-.078l3.734-2.25c1.935.66 3.723 1.69 5.266 3.03l-.078 4.36a.61.61 0 0 0 .11.36c.35.518.664 1.06.937 1.625.053.121.147.22.265.28l3.797 2.11c.406 2 .406 4.062 0 6.063Z"/></svg>