<svg xmlns="http://www.w3.org/2000/svg" width="48" height="48" fill="currentColor"><path d="M35.12 42.749a2.306 2.306 0 0 1-1.238-.356l-9.45-6a.806.806 0 0 0-.862 0l-8.775 5.569a2.568 2.568 0 0 1-2.925-.094 2.7 2.7 0 0 1-1.032-2.869l2.532-9.956a.9.9 0 0 0-.282-.919l-8.475-7.05a2.381 2.381 0 0 1-.75-2.569 2.343 2.343 0 0 1 2.063-1.631l11.081-.712a.862.862 0 0 0 .713-.525L21.845 5.23a2.306 2.306 0 0 1 4.312 0l4.125 10.407a.862.862 0 0 0 .713.524l11.08.713a2.344 2.344 0 0 1 2.063 1.631 2.381 2.381 0 0 1-.75 2.569l-8.475 7.05a.9.9 0 0 0-.28.919l2.737 10.743a2.344 2.344 0 0 1-.92 2.513c-.382.292-.85.45-1.33.45ZM24 34.761c.44.006.87.136 1.238.375l9.45 5.982a.75.75 0 0 0 .882-.019.862.862 0 0 0 .337-.938L33.17 29.4a2.419 2.419 0 0 1 .787-2.419l8.475-7.05a.881.881 0 0 0 .263-.975.788.788 0 0 0-.713-.581l-11.081-.712a2.343 2.343 0 0 1-2.006-1.482L24.77 5.774a.825.825 0 0 0-1.538 0L19.107 16.18a2.344 2.344 0 0 1-2.006 1.482l-11.081.712a.844.844 0 0 0-.732.581.937.937 0 0 0 .282.975l8.475 7.05a2.418 2.418 0 0 1 .787 2.419l-2.531 9.975a1.144 1.144 0 0 0 .45 1.275 1.05 1.05 0 0 0 1.237.038l8.775-5.55c.37-.24.798-.37 1.238-.376Z"/></svg>