<svg xmlns="http://www.w3.org/2000/svg" width="40" height="40" fill="currentColor"><path d="m35.438 9.56-5-5a.61.61 0 0 0-.875 0l-15 15a.563.563 0 0 0-.188.438v5a.624.624 0 0 0 .625.625h5a.563.563 0 0 0 .438-.188l15-15a.609.609 0 0 0 0-.875ZM19.733 24.373h-4.109v-4.11L26.25 9.638l4.11 4.11-10.626 10.625ZM31.25 12.857l-4.11-4.11L30 5.889l4.11 4.11-2.86 2.86Zm3.125 5.89v13.75a1.875 1.875 0 0 1-1.875 1.876h-25a1.875 1.875 0 0 1-1.875-1.875v-25A1.875 1.875 0 0 1 7.5 5.623h13.75a.625.625 0 1 1 0 1.25H7.5a.625.625 0 0 0-.625.625v25a.625.625 0 0 0 .625.625h25a.625.625 0 0 0 .625-.625v-13.75a.625.625 0 1 1 1.25 0Z"/></svg>