<svg xmlns="http://www.w3.org/2000/svg" width="32" height="32" fill="currentColor"><path d="M15.5 4.593c-2.67 0-5.28.774-7.5 2.225a13.271 13.271 0 0 0-4.972 5.925 12.935 12.935 0 0 0-.769 7.63 13.117 13.117 0 0 0 3.695 6.76 13.596 13.596 0 0 0 6.912 3.613 13.78 13.78 0 0 0 7.8-.751 13.44 13.44 0 0 0 6.059-4.863A12.999 12.999 0 0 0 29 17.796c-.004-3.5-1.427-6.857-3.958-9.332C22.51 5.99 19.079 4.596 15.5 4.593Zm0 25.259c-2.438 0-4.821-.707-6.848-2.032a12.118 12.118 0 0 1-4.54-5.41 11.81 11.81 0 0 1-.701-6.966 11.976 11.976 0 0 1 3.373-6.172 12.414 12.414 0 0 1 6.311-3.3 12.583 12.583 0 0 1 7.122.686 12.271 12.271 0 0 1 5.532 4.44 11.868 11.868 0 0 1 2.077 6.698 11.938 11.938 0 0 1-3.614 8.52 12.483 12.483 0 0 1-8.712 3.536Zm6.222-18.14a.558.558 0 0 1 .174.401.548.548 0 0 1-.174.402l-5.811 5.683a.573.573 0 0 1-.411.17.584.584 0 0 1-.585-.572.549.549 0 0 1 .174-.402l5.811-5.683a.573.573 0 0 1 .41-.17.584.584 0 0 1 .412.17ZM11.392.573c0-.152.061-.298.171-.406A.594.594 0 0 1 11.978 0h7.044c.155 0 .305.06.415.168a.568.568 0 0 1 0 .812.594.594 0 0 1-.415.168h-7.044a.594.594 0 0 1-.415-.168.568.568 0 0 1-.172-.406Z"/></svg>