<svg xmlns="http://www.w3.org/2000/svg" width="40" height="40" fill="currentColor"><path d="M39.886 10.117a.688.688 0 0 0-.636-.43h-5.638a7.563 7.563 0 0 0-6.634-4.125 7.632 7.632 0 0 0-7.666 7.563v1.925c-7.58-1.616-13.887-7.855-13.956-7.906a.67.67 0 0 0-1.151.36c-1.479 8.044.928 13.424 3.214 16.518a17.496 17.496 0 0 0 4.709 4.434c-2.698 3.506-7.442 5.311-7.494 5.345a.687.687 0 0 0-.44.733.653.653 0 0 0 .114.282c.034.068.48.687 1.632 1.271 1.461.722 3.42 1.1 5.81 1.1 11.842 0 21.742-9.195 22.619-20.968l5.362-5.363a.653.653 0 0 0 .155-.739Zm-6.669 5.311a.722.722 0 0 0-.206.447c-.705 11.189-10.055 19.938-21.261 19.938-3.06 0-4.744-.67-5.586-1.187 1.787-.825 5.414-2.801 7.528-5.998a.635.635 0 0 0 .103-.55.724.724 0 0 0-.36-.447c-.035-.017-2.63-1.34-4.916-4.434C5.665 19.313 4.599 14.552 5.356 9c2.2 1.942 7.872 6.445 14.524 7.545a.722.722 0 0 0 .567-.137.705.705 0 0 0 .24-.533v-2.75a6.257 6.257 0 0 1 6.274-6.188 6.205 6.205 0 0 1 5.586 3.713.67.67 0 0 0 .636.412h4.4l-4.366 4.366Z"/></svg>