<svg xmlns="http://www.w3.org/2000/svg" width="44" height="44" fill="currentColor"><path d="M37.125 13.063h-27.5a2.062 2.062 0 0 1 0-4.126H33a.687.687 0 0 0 0-1.374H9.625A3.455 3.455 0 0 0 6.187 11v22a3.455 3.455 0 0 0 3.438 3.438h27.5a2.062 2.062 0 0 0 2.063-2.063v-19.25a2.062 2.062 0 0 0-2.063-2.063Zm.688 21.312a.687.687 0 0 1-.688.688h-27.5A2.062 2.062 0 0 1 7.562 33V13.75a3.42 3.42 0 0 0 2.063.688h27.5a.687.687 0 0 1 .688.687v19.25Zm-5.5-9.625a1.375 1.375 0 1 1-2.75 0 1.375 1.375 0 0 1 2.75 0Z"/></svg>